<?xml version="1.0" encoding="iso-8859-1"?>
<!-- Uploaded to: SVG Repo, www.svgrepo.com, Generator: SVG Repo Mixer Tools -->
<svg fill="currentColor" height="3vw" width="3vw" version="1.1" id="Layer_1" xmlns="http://www.w3.org/2000/svg" xmlns:xlink="http://www.w3.org/1999/xlink" 
	 viewBox="0 0 512 512" xml:space="preserve">
<g>
	<g>
		<path d="M476.92,493.76L240.333,256.32L476.707,18.24c4.16-4.16,4.16-10.88,0-15.04C474.68,1.067,472.013,0,469.24,0H286.627
			c-2.88,0-5.547,1.173-7.573,3.2L35.107,248.853c-4.16,4.16-4.16,10.88,0,15.04l244.16,245.013
			c2.027,2.027,4.693,3.093,7.573,3.093h182.507c5.867,0,10.667-4.8,10.667-10.667C480.013,498.56,478.947,495.787,476.92,493.76z
			 M291.213,490.667L57.72,256.32L291,21.333h152.533L217.72,248.853c-4.16,4.16-4.16,10.88,0,15.04l225.92,226.773H291.213z"/>
	</g>
</g>
</svg>